<svg width="149" height="72" viewBox="0 0 149 72" fill="none" xmlns="http://www.w3.org/2000/svg">
<path d="M11.6944 56.321V71.2528H3.35918V36.3438H11.4217V49.8778H11.7114C12.3024 48.2642 13.2683 47.0028 14.6092 46.0938C15.9614 45.1847 17.6149 44.7301 19.5694 44.7301C21.4103 44.7301 23.0126 45.1392 24.3762 45.9574C25.7399 46.7642 26.7967 47.9063 27.5467 49.3835C28.308 50.8608 28.683 52.5881 28.6717 54.5653V71.2528H20.3365V56.2017C20.3478 54.7472 19.9842 53.6108 19.2455 52.7926C18.5069 51.9744 17.4671 51.5653 16.1262 51.5653C15.2512 51.5653 14.4785 51.7585 13.808 52.1449C13.1489 52.5199 12.6319 53.0597 12.2569 53.7642C11.8933 54.4688 11.7058 55.321 11.6944 56.321Z" fill="white"/>
<path d="M41.2555 71.696C39.585 71.696 38.1021 71.4176 36.8066 70.8608C35.5225 70.2926 34.5055 69.4403 33.7555 68.304C33.0168 67.1563 32.6475 65.7188 32.6475 63.9915C32.6475 62.5369 32.9032 61.3097 33.4146 60.3097C33.9259 59.3097 34.6305 58.4972 35.5282 57.8722C36.4259 57.2472 37.46 56.7756 38.6305 56.4574C39.8009 56.1278 41.0509 55.9063 42.3805 55.7926C43.8691 55.6563 45.068 55.5142 45.9771 55.3665C46.8862 55.2074 47.5453 54.9858 47.9543 54.7017C48.3748 54.4063 48.585 53.9915 48.585 53.4574V53.3722C48.585 52.4972 48.2839 51.821 47.6816 51.3438C47.0793 50.8665 46.2668 50.6278 45.2441 50.6278C44.1418 50.6278 43.2555 50.8665 42.585 51.3438C41.9146 51.821 41.4884 52.4801 41.3066 53.321L33.6191 53.0483C33.8464 51.4574 34.4316 50.0369 35.3748 48.7869C36.3293 47.5256 37.6362 46.5369 39.2953 45.821C40.9657 45.0938 42.9714 44.7301 45.3123 44.7301C46.9828 44.7301 48.5225 44.929 49.9316 45.3267C51.3407 45.7131 52.568 46.2813 53.6134 47.0313C54.6589 47.7699 55.4657 48.679 56.0339 49.7585C56.6134 50.8381 56.9032 52.071 56.9032 53.4574V71.2528H49.0623V67.6051H48.8578C48.3918 68.4915 47.7953 69.2415 47.068 69.8551C46.3521 70.4688 45.5055 70.929 44.5282 71.2358C43.5623 71.5426 42.4714 71.696 41.2555 71.696ZM43.8293 66.2415C44.7271 66.2415 45.5339 66.0597 46.2498 65.696C46.9771 65.3324 47.5566 64.8324 47.9884 64.196C48.4203 63.5483 48.6362 62.7983 48.6362 61.946V59.4574C48.3975 59.5824 48.1078 59.696 47.7668 59.7983C47.4373 59.9006 47.0737 59.9972 46.6759 60.0881C46.2782 60.179 45.8691 60.2585 45.4487 60.3267C45.0282 60.3949 44.6248 60.4574 44.2384 60.5142C43.4544 60.6392 42.7839 60.8324 42.2271 61.0938C41.6816 61.3551 41.2612 61.696 40.9657 62.1165C40.6816 62.5256 40.5396 63.0142 40.5396 63.5824C40.5396 64.446 40.8464 65.1051 41.46 65.5597C42.085 66.0142 42.8748 66.2415 43.8293 66.2415Z" fill="white"/>
<path d="M61.9998 71.2528V36.3438H70.335V49.554H70.5055C70.8464 48.7585 71.3293 47.9915 71.9543 47.2528C72.5907 46.5142 73.3975 45.9119 74.3748 45.446C75.3634 44.9688 76.5453 44.7301 77.9203 44.7301C79.7384 44.7301 81.4373 45.2074 83.0168 46.1619C84.6078 47.1165 85.8919 48.5881 86.8691 50.5767C87.8464 52.5653 88.335 55.0994 88.335 58.179C88.335 61.1449 87.8634 63.6278 86.9203 65.6278C85.9884 67.6278 84.7271 69.1278 83.1362 70.1278C81.5566 71.1278 79.8009 71.6278 77.8691 71.6278C76.5509 71.6278 75.4089 71.4119 74.443 70.9801C73.4771 70.5483 72.6646 69.9801 72.0055 69.2756C71.3578 68.571 70.8578 67.8153 70.5055 67.0085H70.2498V71.2528H61.9998ZM70.1646 58.1619C70.1646 59.571 70.3521 60.7983 70.7271 61.8438C71.1134 62.8892 71.6646 63.7017 72.3805 64.2813C73.1078 64.8494 73.9771 65.1335 74.9884 65.1335C76.0112 65.1335 76.8805 64.8494 77.5964 64.2813C78.3123 63.7017 78.8521 62.8892 79.2157 61.8438C79.5907 60.7983 79.7782 59.571 79.7782 58.1619C79.7782 56.7528 79.5907 55.5313 79.2157 54.4972C78.8521 53.4631 78.3123 52.6619 77.5964 52.0938C76.8919 51.5256 76.0225 51.2415 74.9884 51.2415C73.9657 51.2415 73.0964 51.5199 72.3805 52.0767C71.6646 52.6335 71.1134 53.429 70.7271 54.4631C70.3521 55.4972 70.1646 56.7301 70.1646 58.1619Z" fill="white"/>
<path d="M92.7029 71.2528V45.071H101.038V71.2528H92.7029ZM96.8791 42.0199C95.7086 42.0199 94.7029 41.6335 93.862 40.8608C93.0211 40.0767 92.6007 39.1335 92.6007 38.0313C92.6007 36.9403 93.0211 36.0085 93.862 35.2358C94.7029 34.4517 95.7086 34.0597 96.8791 34.0597C98.0609 34.0597 99.0666 34.4517 99.8961 35.2358C100.737 36.0085 101.157 36.9403 101.157 38.0313C101.157 39.1335 100.737 40.0767 99.8961 40.8608C99.0666 41.6335 98.0609 42.0199 96.8791 42.0199Z" fill="white"/>
<path d="M121.122 45.071V51.2074H104.605V45.071H121.122ZM108.065 38.7983H116.4V63.0199C116.4 63.5313 116.48 63.946 116.639 64.2642C116.809 64.571 117.054 64.7926 117.372 64.929C117.69 65.054 118.071 65.1165 118.514 65.1165C118.832 65.1165 119.167 65.0881 119.52 65.0313C119.883 64.9631 120.156 64.9063 120.338 64.8608L121.599 70.8778C121.202 70.9915 120.639 71.1335 119.912 71.304C119.196 71.4744 118.338 71.5824 117.338 71.6278C115.383 71.7188 113.707 71.4915 112.309 70.946C110.923 70.3892 109.861 69.5256 109.122 68.3551C108.395 67.1847 108.042 65.7131 108.065 63.9403V38.7983Z" fill="white"/>
<path d="M147.905 53.0653L140.251 53.2699C140.172 52.7244 139.956 52.2415 139.604 51.821C139.251 51.3892 138.791 51.054 138.223 50.8153C137.666 50.5653 137.018 50.4403 136.28 50.4403C135.314 50.4403 134.49 50.6335 133.808 51.0199C133.138 51.4063 132.808 51.929 132.819 52.5881C132.808 53.0994 133.013 53.5426 133.433 53.9176C133.865 54.2926 134.632 54.5938 135.734 54.821L140.78 55.7756C143.393 56.2756 145.336 57.1051 146.609 58.2642C147.893 59.4233 148.541 60.9574 148.552 62.8665C148.541 64.6619 148.007 66.2244 146.95 67.554C145.905 68.8835 144.473 69.9176 142.655 70.6563C140.836 71.3835 138.757 71.7472 136.416 71.7472C132.677 71.7472 129.728 70.9801 127.569 69.446C125.422 67.9006 124.194 65.8324 123.888 63.2415L132.121 63.0369C132.302 63.9915 132.774 64.7188 133.535 65.2188C134.297 65.7188 135.268 65.9688 136.45 65.9688C137.518 65.9688 138.388 65.7699 139.058 65.3722C139.728 64.9744 140.069 64.446 140.081 63.7869C140.069 63.196 139.808 62.7244 139.297 62.3722C138.785 62.0085 137.984 61.7244 136.893 61.5199L132.325 60.6506C129.7 60.1733 127.746 59.2926 126.461 58.0085C125.177 56.7131 124.541 55.0653 124.552 53.0653C124.541 51.3153 125.007 49.821 125.95 48.5824C126.893 47.3324 128.234 46.3778 129.973 45.7188C131.711 45.0597 133.763 44.7301 136.126 44.7301C139.672 44.7301 142.467 45.4744 144.513 46.9631C146.558 48.4403 147.689 50.4744 147.905 53.0653Z" fill="white"/>
<rect x="1.21713" y="0.752838" width="15" height="15" rx="3.5" fill="#18181B" stroke="#27272A"/>
<rect x="21.2171" y="0.752838" width="15" height="15" rx="3.5" fill="#4C1D95" stroke="#6D28D9"/>
<rect x="41.2171" y="0.752838" width="15" height="15" rx="3.5" fill="#5B21B6" stroke="#7C3AED"/>
<rect x="61.2171" y="0.752838" width="15" height="15" rx="3.5" fill="#6D28D9" stroke="#8B5CF6"/>
<rect x="81.2171" y="0.752838" width="15" height="15" rx="3.5" fill="#7C3AED" stroke="#A78BFA"/>
<rect x="101.217" y="0.752838" width="15" height="15" rx="3.5" fill="#8B5CF6" stroke="#C4B5FD"/>
</svg>
